<svg xmlns="http://www.w3.org/2000/svg" xmlns:xlink="http://www.w3.org/1999/xlink" width="1080" zoomAndPan="magnify" viewBox="0 0 810 809.999993" height="1080" preserveAspectRatio="xMidYMid meet" version="1.0"><defs><clipPath id="72118fff32"><path d="M 52.054688 41.214844 L 194.925781 41.214844 L 194.925781 679.457031 L 52.054688 679.457031 Z M 52.054688 41.214844 " clip-rule="nonzero"/></clipPath><clipPath id="ef1d8c38f8"><path d="M 194.175781 41.214844 L 337.046875 41.214844 L 337.046875 679.457031 L 194.175781 679.457031 Z M 194.175781 41.214844 " clip-rule="nonzero"/></clipPath><clipPath id="ff3e747a64"><path d="M 337.796875 41.214844 L 480.667969 41.214844 L 480.667969 679.457031 L 337.796875 679.457031 Z M 337.796875 41.214844 " clip-rule="nonzero"/></clipPath><clipPath id="e7009ea540"><path d="M 481.417969 41.214844 L 624.289062 41.214844 L 624.289062 679.457031 L 481.417969 679.457031 Z M 481.417969 41.214844 " clip-rule="nonzero"/></clipPath><clipPath id="a6e37e5776"><path d="M 627.289062 41.214844 L 770.160156 41.214844 L 770.160156 679.457031 L 627.289062 679.457031 Z M 627.289062 41.214844 " clip-rule="nonzero"/></clipPath><clipPath id="096c2299a4"><path d="M 0 645.316406 L 810 645.316406 L 810 810 L 0 810 Z M 0 645.316406 " clip-rule="nonzero"/></clipPath><clipPath id="8d439af3fc"><path d="M 0 0 L 810 0 L 810 52.808594 L 0 52.808594 Z M 0 0 " clip-rule="nonzero"/></clipPath><clipPath id="b6a297b653"><path d="M 0 26.402344 L 52.804688 26.402344 L 52.804688 810 L 0 810 Z M 0 26.402344 " clip-rule="nonzero"/></clipPath><clipPath id="1dbfb073ff"><path d="M 757.191406 26.402344 L 810 26.402344 L 810 810 L 757.191406 810 Z M 757.191406 26.402344 " clip-rule="nonzero"/></clipPath></defs><rect x="-81" width="972" fill="#ffffff" y="-80.999999" height="971.999992" fill-opacity="1"/><rect x="-81" width="972" fill="#000000" y="-80.999999" height="971.999992" fill-opacity="1"/><g clip-path="url(#72118fff32)"><path fill="#000000" d="M 52.054688 41.214844 L 194.925781 41.214844 L 194.925781 679.667969 L 52.054688 679.667969 Z M 52.054688 41.214844 " fill-opacity="1" fill-rule="nonzero"/></g><g clip-path="url(#ef1d8c38f8)"><path fill="#6d0d03" d="M 194.175781 41.214844 L 337.046875 41.214844 L 337.046875 679.667969 L 194.175781 679.667969 Z M 194.175781 41.214844 " fill-opacity="1" fill-rule="nonzero"/></g><g clip-path="url(#ff3e747a64)"><path fill="#dfbb00" d="M 337.796875 41.214844 L 480.667969 41.214844 L 480.667969 679.667969 L 337.796875 679.667969 Z M 337.796875 41.214844 " fill-opacity="1" fill-rule="nonzero"/></g><g clip-path="url(#e7009ea540)"><path fill="#17436b" d="M 481.417969 41.214844 L 624.289062 41.214844 L 624.289062 679.667969 L 481.417969 679.667969 Z M 481.417969 41.214844 " fill-opacity="1" fill-rule="nonzero"/></g><g clip-path="url(#a6e37e5776)"><path fill="#f5c4eb" d="M 627.289062 41.214844 L 770.160156 41.214844 L 770.160156 679.667969 L 627.289062 679.667969 Z M 627.289062 41.214844 " fill-opacity="1" fill-rule="nonzero"/></g><g clip-path="url(#096c2299a4)"><path fill="#d9d9d9" d="M 0 645.316406 L 809.886719 645.316406 L 809.886719 836.402344 L 0 836.402344 Z M 0 645.316406 " fill-opacity="1" fill-rule="nonzero"/></g><g clip-path="url(#8d439af3fc)"><path fill="#d9d9d9" d="M -44.089844 -13.921875 L 833.296875 -13.921875 L 833.296875 52.808594 L -44.089844 52.808594 Z M -44.089844 -13.921875 " fill-opacity="1" fill-rule="nonzero"/></g><g clip-path="url(#b6a297b653)"><path fill="#d9d9d9" d="M 52.804688 26.402344 L 52.804688 836.382812 L -44.089844 836.382812 L -44.089844 26.402344 Z M 52.804688 26.402344 " fill-opacity="1" fill-rule="nonzero"/></g><g clip-path="url(#1dbfb073ff)"><path fill="#d9d9d9" d="M 847.125 26.402344 L 847.125 836.507812 L 757.191406 836.507812 L 757.191406 26.402344 Z M 847.125 26.402344 " fill-opacity="1" fill-rule="nonzero"/></g></svg>